<svg xmlns="http://www.w3.org/2000/svg" xmlns:xlink="http://www.w3.org/1999/xlink" width="229.76" height="57.878" viewBox="0 0 229.76 57.878">
  <defs>
    <clipPath id="clip-path">
      <rect id="Rectangle_17" data-name="Rectangle 17" width="160" height="33" transform="translate(0 -0.412)" fill="#fff"/>
    </clipPath>
    <clipPath id="clip-path-2">
      <rect id="Rectangle_16" data-name="Rectangle 16" width="150.648" height="187.458" fill="#fff"/>
    </clipPath>
  </defs>
  <g id="logo-white" transform="translate(-554 -454.122)">
    <g id="Mask_Group_1" data-name="Mask Group 1" transform="translate(623.76 479.412)" clip-path="url(#clip-path)" style="isolation: isolate">
      <g id="Group_1" data-name="Group 1" transform="translate(0 -160.056)" clip-path="url(#clip-path-2)">
        <path id="Path_1" data-name="Path 1" d="M.066,214.945V190.806H11.412a10.39,10.39,0,0,1,4.293.828,6.637,6.637,0,0,1,2.862,2.328,6.027,6.027,0,0,1,1.018,3.465,5.486,5.486,0,0,1-.811,2.913,6.337,6.337,0,0,1-2.189,2.156,7.157,7.157,0,0,1,2.793,2.241,5.3,5.3,0,0,1,1.034,3.207,6.462,6.462,0,0,1-1.051,3.656,6.933,6.933,0,0,1-2.966,2.465,10.518,10.518,0,0,1-4.431.88Zm5-14.276H11.1a3.942,3.942,0,0,0,2.569-.776,2.769,2.769,0,0,0,0-4.172,3.942,3.942,0,0,0-2.569-.776H5.067Zm0,10.138h6.518a4.229,4.229,0,0,0,2.758-.845,2.766,2.766,0,0,0,1.035-2.258,2.8,2.8,0,0,0-1.035-2.293,4.224,4.224,0,0,0-2.758-.845H5.067Z" transform="translate(-0.01 -27.832)" fill="#fff"/>
        <path id="Path_2" data-name="Path 2" d="M27.6,214.809V190.67l4.724-.793v24.932Z" transform="translate(-4.026 -27.696)" fill="#fff"/>
        <path id="Path_3" data-name="Path 3" d="M44.394,216.344a7.286,7.286,0,0,1-3.673-.913A6.586,6.586,0,0,1,38.2,212.9a7.453,7.453,0,0,1-.913-3.725V198.033h4.723v10.449a3.763,3.763,0,0,0,1.017,2.759,3.672,3.672,0,0,0,2.742,1.034,4.743,4.743,0,0,0,2.121-.465,4.167,4.167,0,0,0,1.569-1.328V198.033h4.724V216H49.463v-1.448a7.469,7.469,0,0,1-5.069,1.793" transform="translate(-5.439 -28.886)" fill="#fff"/>
        <path id="Path_4" data-name="Path 4" d="M70.044,216.291a9.723,9.723,0,0,1-4.88-1.242A9.406,9.406,0,0,1,61.7,211.7a8.929,8.929,0,0,1-1.276-4.725,9.171,9.171,0,0,1,4.552-8.068,9.055,9.055,0,0,1,4.69-1.242,8.342,8.342,0,0,1,4.587,1.276,9.047,9.047,0,0,1,3.156,3.448,10.356,10.356,0,0,1,1.155,4.931v1.242H65.251a5.361,5.361,0,0,0,1.017,1.93,4.831,4.831,0,0,0,1.759,1.345,5.33,5.33,0,0,0,2.258.483,6.32,6.32,0,0,0,2.224-.378,5.046,5.046,0,0,0,1.742-1.07l3.1,2.829a10.813,10.813,0,0,1-7.311,2.586m-4.862-11.1h8.724a4.667,4.667,0,0,0-.879-1.88,4.752,4.752,0,0,0-1.518-1.275,4.1,4.1,0,0,0-1.948-.466,4.3,4.3,0,0,0-1.982.448,4.379,4.379,0,0,0-1.5,1.258,5.155,5.155,0,0,0-.9,1.914" transform="translate(-8.814 -28.833)" fill="#fff"/>
        <path id="Path_5" data-name="Path 5" d="M93.617,216.285a9.468,9.468,0,0,1-4.793-1.224,9.078,9.078,0,0,1-3.38-3.345,9.344,9.344,0,0,1,3.38-12.845,9.37,9.37,0,0,1,4.793-1.242,10.348,10.348,0,0,1,4.086.828,9.551,9.551,0,0,1,3.362,2.379l-2.9,3.071a7.1,7.1,0,0,0-2.088-1.639,5.289,5.289,0,0,0-2.362-.535,4.5,4.5,0,0,0-2.466.69,4.98,4.98,0,0,0-1.724,1.862,5.88,5.88,0,0,0,0,5.328,4.7,4.7,0,0,0,1.775,1.862,4.858,4.858,0,0,0,2.518.672,5.183,5.183,0,0,0,2.258-.5,6.988,6.988,0,0,0,2.017-1.5l2.828,2.966a10.121,10.121,0,0,1-7.311,3.172" transform="translate(-12.282 -28.827)" fill="#fff"/>
        <path id="Path_6" data-name="Path 6" d="M113.593,216.344a7.287,7.287,0,0,1-3.673-.913A6.586,6.586,0,0,1,107.4,212.9a7.453,7.453,0,0,1-.913-3.725V198.033h4.723v10.449a3.763,3.763,0,0,0,1.017,2.759,3.672,3.672,0,0,0,2.742,1.034,4.737,4.737,0,0,0,2.12-.465,4.163,4.163,0,0,0,1.57-1.328V198.033h4.724V216h-4.724v-1.448a7.469,7.469,0,0,1-5.069,1.793" transform="translate(-15.533 -28.886)" fill="#fff"/>
        <path id="Path_7" data-name="Path 7" d="M130.591,214.809V190.67l4.725-.793v8.414a7.875,7.875,0,0,1,5.034-1.689,8.8,8.8,0,0,1,4.621,1.242,9.313,9.313,0,0,1,3.294,3.327,9.066,9.066,0,0,1,1.224,4.673,8.961,8.961,0,0,1-1.241,4.672,9.362,9.362,0,0,1-10.656,4.156,8.44,8.44,0,0,1-2.345-1.1v1.242Zm9-3.759a5.233,5.233,0,0,0,2.673-.689,5.089,5.089,0,0,0,2.569-4.518,5.247,5.247,0,0,0-.689-2.673,4.96,4.96,0,0,0-1.88-1.861,5.334,5.334,0,0,0-2.673-.673,6.452,6.452,0,0,0-2.4.431,5.053,5.053,0,0,0-1.879,1.293v7a5.718,5.718,0,0,0,1.879,1.225,6.2,6.2,0,0,0,2.4.465" transform="translate(-19.048 -27.696)" fill="#fff"/>
        <path id="Path_8" data-name="Path 8" d="M164.759,216.291a9.723,9.723,0,0,1-4.88-1.242,9.406,9.406,0,0,1-3.465-3.345,8.929,8.929,0,0,1-1.276-4.725,9.171,9.171,0,0,1,4.552-8.068,9.055,9.055,0,0,1,4.69-1.242,8.342,8.342,0,0,1,4.587,1.276,9.054,9.054,0,0,1,3.156,3.448,10.356,10.356,0,0,1,1.155,4.931v1.242H159.966a5.361,5.361,0,0,0,1.017,1.93,4.832,4.832,0,0,0,1.759,1.345,5.327,5.327,0,0,0,2.258.483,6.32,6.32,0,0,0,2.224-.378,5.045,5.045,0,0,0,1.742-1.07l3.1,2.829a10.813,10.813,0,0,1-7.311,2.586m-4.862-11.1h8.724a4.667,4.667,0,0,0-.879-1.88,4.753,4.753,0,0,0-1.518-1.275,4.1,4.1,0,0,0-1.948-.466,4.3,4.3,0,0,0-1.982.448,4.379,4.379,0,0,0-1.5,1.258,5.155,5.155,0,0,0-.9,1.914" transform="translate(-22.629 -28.833)" fill="#fff"/>
        <rect id="Rectangle_1" data-name="Rectangle 1" width="14.059" height="14.059" transform="translate(0 136.512)" fill="#fff"/>
        <rect id="Rectangle_2" data-name="Rectangle 2" width="14.059" height="14.059" transform="translate(0 117.008)" fill="#fff"/>
        <rect id="Rectangle_3" data-name="Rectangle 3" width="14.059" height="14.059" transform="translate(0 97.507)" fill="#fff"/>
        <rect id="Rectangle_4" data-name="Rectangle 4" width="14.059" height="14.059" transform="translate(0 78.005)" fill="#fff"/>
        <rect id="Rectangle_5" data-name="Rectangle 5" width="14.059" height="14.059" transform="translate(0 58.504)" fill="#fff"/>
        <rect id="Rectangle_6" data-name="Rectangle 6" width="14.059" height="14.059" transform="translate(0 39.003)" fill="#fff"/>
        <rect id="Rectangle_7" data-name="Rectangle 7" width="14.059" height="14.059" transform="translate(0 19.501)" fill="#fff"/>
        <rect id="Rectangle_8" data-name="Rectangle 8" width="14.059" height="14.059" transform="translate(0 0)" fill="#fff"/>
        <rect id="Rectangle_9" data-name="Rectangle 9" width="14.059" height="14.059" transform="translate(19.501 136.512)" fill="#fff"/>
        <path id="Path_9" data-name="Path 9" d="M36.641,151.039H22.847l.251-14.045H36.891Z" transform="translate(-3.333 -19.982)" fill="#fff"/>
        <path id="Path_10" data-name="Path 10" d="M36.391,128.193H22.864l.5-14.033H36.893Z" transform="translate(-3.335 -16.652)" fill="#fff"/>
        <path id="Path_11" data-name="Path 11" d="M36.141,105.348H22.88l.752-14.019h13.26Z" transform="translate(-3.337 -13.322)" fill="#fff"/>
        <path id="Path_12" data-name="Path 12" d="M35.892,82.5H22.9l1-14.005h13Z" transform="translate(-3.34 -9.991)" fill="#fff"/>
        <path id="Path_13" data-name="Path 13" d="M35.642,59.656H22.913l1.253-13.992H36.9Z" transform="translate(-3.342 -6.661)" fill="#fff"/>
        <path id="Path_14" data-name="Path 14" d="M35.392,36.811H22.929l1.5-13.979H36.9Z" transform="translate(-3.344 -3.33)" fill="#fff"/>
        <path id="Path_15" data-name="Path 15" d="M35.142,13.965h-12.2L24.7,0H36.9Z" transform="translate(-3.347 0)" fill="#fff"/>
        <rect id="Rectangle_10" data-name="Rectangle 10" width="14.059" height="14.059" transform="translate(39.003 136.512)" fill="#fff"/>
        <path id="Path_16" data-name="Path 16" d="M59.223,151.025H45.7l.5-14.033H59.724Z" transform="translate(-6.665 -19.982)" fill="#fff"/>
        <path id="Path_17" data-name="Path 17" d="M58.723,128.166H45.729l1-14.005h13Z" transform="translate(-6.67 -16.652)" fill="#fff"/>
        <path id="Path_18" data-name="Path 18" d="M58.224,105.307H45.76l1.5-13.979H59.728Z" transform="translate(-6.675 -13.322)" fill="#fff"/>
        <path id="Path_19" data-name="Path 19" d="M57.724,82.448H45.793L47.8,68.5H59.73Z" transform="translate(-6.68 -9.991)" fill="#fff"/>
        <path id="Path_20" data-name="Path 20" d="M57.225,59.59h-11.4l2.507-13.925h11.4Z" transform="translate(-6.684 -6.661)" fill="#fff"/>
        <path id="Path_21" data-name="Path 21" d="M56.725,36.731H45.858l3.007-13.9H59.734Z" transform="translate(-6.689 -3.33)" fill="#fff"/>
        <path id="Path_22" data-name="Path 22" d="M56.226,13.872H45.89L49.4,0H59.735Z" transform="translate(-6.694 0)" fill="#fff"/>
        <rect id="Rectangle_11" data-name="Rectangle 11" width="14.059" height="14.059" transform="translate(58.504 136.512)" fill="#fff"/>
        <path id="Path_23" data-name="Path 23" d="M81.8,151.012H68.543l.752-14.019h13.26Z" transform="translate(-9.998 -19.982)" fill="#fff"/>
        <path id="Path_24" data-name="Path 24" d="M81.055,128.14H68.592l1.5-13.979H82.559Z" transform="translate(-10.005 -16.652)" fill="#fff"/>
        <path id="Path_25" data-name="Path 25" d="M80.306,105.267H68.641L70.9,91.329H82.562Z" transform="translate(-10.012 -13.322)" fill="#fff"/>
        <path id="Path_26" data-name="Path 26" d="M79.557,82.4H68.69L71.7,68.5H82.565Z" transform="translate(-10.019 -9.991)" fill="#fff"/>
        <path id="Path_27" data-name="Path 27" d="M78.808,59.523H68.738L72.5,45.664H82.567Z" transform="translate(-10.026 -6.661)" fill="#fff"/>
        <path id="Path_28" data-name="Path 28" d="M78.058,36.65H68.787L73.3,22.832h9.272Z" transform="translate(-10.033 -3.33)" fill="#fff"/>
        <path id="Path_29" data-name="Path 29" d="M77.309,13.778H68.835L74.1,0h8.474Z" transform="translate(-10.041)" fill="#fff"/>
        <rect id="Rectangle_12" data-name="Rectangle 12" width="14.059" height="14.059" transform="translate(78.006 136.512)" fill="#fff"/>
        <path id="Path_30" data-name="Path 30" d="M104.387,151H91.392l1-14.005h13Z" transform="translate(-13.331 -19.982)" fill="#fff"/>
        <path id="Path_31" data-name="Path 31" d="M103.388,128.113H91.456l2.006-13.952h11.931Z" transform="translate(-13.34 -16.652)" fill="#fff"/>
        <path id="Path_32" data-name="Path 32" d="M102.388,105.227H91.521l3.007-13.9H105.4Z" transform="translate(-13.35 -13.322)" fill="#fff"/>
        <path id="Path_33" data-name="Path 33" d="M101.389,82.341h-9.8L95.6,68.5h9.8Z" transform="translate(-13.359 -9.991)" fill="#fff"/>
        <path id="Path_34" data-name="Path 34" d="M100.39,59.456h-8.74l5.013-13.792h8.74Z" transform="translate(-13.369 -6.661)" fill="#fff"/>
        <path id="Path_35" data-name="Path 35" d="M99.391,36.57H91.715l6.017-13.738h7.675Z" transform="translate(-13.378 -3.33)" fill="#fff"/>
        <path id="Path_36" data-name="Path 36" d="M98.392,13.684H91.78L98.8,0h6.612Z" transform="translate(-13.387 0)" fill="#fff"/>
        <rect id="Rectangle_13" data-name="Rectangle 13" width="14.059" height="14.059" transform="translate(97.506 136.512)" fill="#fff"/>
        <path id="Path_37" data-name="Path 37" d="M126.968,150.985H114.239l1.253-13.992h12.729Z" transform="translate(-16.663 -19.982)" fill="#fff"/>
        <path id="Path_38" data-name="Path 38" d="M125.72,128.086h-11.4l2.507-13.925h11.4Z" transform="translate(-16.675 -16.652)" fill="#fff"/>
        <path id="Path_39" data-name="Path 39" d="M124.471,105.187H114.4l3.76-13.858h10.069Z" transform="translate(-16.687 -13.322)" fill="#fff"/>
        <path id="Path_40" data-name="Path 40" d="M123.222,82.288h-8.74L119.5,68.5h8.74Z" transform="translate(-16.699 -9.991)" fill="#fff"/>
        <path id="Path_41" data-name="Path 41" d="M121.973,59.389h-7.41l6.267-13.725h7.41Z" transform="translate(-16.711 -6.661)" fill="#fff"/>
        <path id="Path_42" data-name="Path 42" d="M120.724,36.49h-6.08l7.52-13.658h6.08Z" transform="translate(-16.722 -3.33)" fill="#fff"/>
        <path id="Path_43" data-name="Path 43" d="M119.475,13.591h-4.75L123.5,0h4.75Z" transform="translate(-16.734 0)" fill="#fff"/>
        <rect id="Rectangle_14" data-name="Rectangle 14" width="14.059" height="14.059" transform="translate(117.008 136.512)" fill="#fff"/>
        <path id="Path_44" data-name="Path 44" d="M149.55,150.972H137.087l1.5-13.979h12.464Z" transform="translate(-19.996 -19.982)" fill="#fff"/>
        <path id="Path_45" data-name="Path 45" d="M148.052,128.059H137.185l3.007-13.9H151.06Z" transform="translate(-20.01 -16.652)" fill="#fff"/>
        <path id="Path_46" data-name="Path 46" d="M146.553,105.147h-9.272l4.512-13.818h9.272Z" transform="translate(-20.024 -13.322)" fill="#fff"/>
        <path id="Path_47" data-name="Path 47" d="M145.054,82.234h-7.676L143.395,68.5h7.675Z" transform="translate(-20.039 -9.991)" fill="#fff"/>
        <path id="Path_48" data-name="Path 48" d="M143.556,59.322h-6.08L145,45.664h6.08Z" transform="translate(-20.053 -6.661)" fill="#fff"/>
        <path id="Path_49" data-name="Path 49" d="M142.057,36.41h-4.484L146.6,22.832h4.484Z" transform="translate(-20.067 -3.33)" fill="#fff"/>
        <path id="Path_50" data-name="Path 50" d="M140.559,13.5h-2.888L148.2,0h2.888Z" transform="translate(-20.081 0)" fill="#fff"/>
        <rect id="Rectangle_15" data-name="Rectangle 15" width="14.059" height="14.059" transform="translate(136.509 136.512)" fill="#fff"/>
        <path id="Path_51" data-name="Path 51" d="M172.132,150.958h-12.2l1.754-13.965h12.2Z" transform="translate(-23.329 -19.982)" fill="#fff"/>
        <path id="Path_52" data-name="Path 52" d="M170.384,128.033H160.048l3.51-13.872h10.336Z" transform="translate(-23.345 -16.652)" fill="#fff"/>
        <path id="Path_53" data-name="Path 53" d="M168.635,105.107h-8.474l5.264-13.778H173.9Z" transform="translate(-23.362 -13.322)" fill="#fff"/>
        <path id="Path_54" data-name="Path 54" d="M166.887,82.181h-6.612L167.294,68.5h6.612Z" transform="translate(-23.378 -9.991)" fill="#fff"/>
        <path id="Path_55" data-name="Path 55" d="M165.139,59.255h-4.75l8.774-13.591h4.75Z" transform="translate(-23.395 -6.661)" fill="#fff"/>
        <path id="Path_56" data-name="Path 56" d="M163.39,36.329H160.5l10.528-13.5h2.888Z" transform="translate(-23.411 -3.33)" fill="#fff"/>
        <path id="Path_57" data-name="Path 57" d="M161.642,13.4h-1.027L172.9,0h1.026Z" transform="translate(-23.428 0)" fill="#fff"/>
      </g>
    </g>
    <g id="Group_2" data-name="Group 2" transform="translate(-37 195.363)">
      <g id="Group_463" data-name="Group 463" transform="translate(591 311.518)">
        <path id="Path_359" data-name="Path 359" d="M0,0H9.32V-9.32H0Z" fill="#fff"/>
        <path id="Path_360" data-name="Path 360" d="M14.479,0H23.8V-9.32h-9.32Z" fill="#fff"/>
        <path id="Path_361" data-name="Path 361" d="M28.959,0h9.32V-9.32h-9.32Z" fill="#fff"/>
        <path id="Path_362" data-name="Path 362" d="M43.439,0h9.32V-9.32h-9.32Z" fill="#fff"/>
        <g id="Group_454" data-name="Group 454" transform="translate(52.012 -52.759)">
          <path id="Path_363" data-name="Path 363" d="M0,0-8.54,9.319h.714L.713,0Z" fill="#fff"/>
        </g>
        <g id="Group_455" data-name="Group 455" transform="translate(34.674 -52.759)">
          <path id="Path_364" data-name="Path 364" d="M0,0-5.693,9.319h3.582L3.582,0Z" fill="#fff"/>
        </g>
        <g id="Group_456" data-name="Group 456" transform="translate(17.338 -52.759)">
          <path id="Path_365" data-name="Path 365" d="M0,0-2.847,9.319H3.6L6.45,0Z" fill="#fff"/>
        </g>
        <path id="Path_366" data-name="Path 366" d="M0-43.439H9.32v-9.32H0Z" fill="#fff"/>
        <g id="Group_457" data-name="Group 457" transform="translate(49.153 -38.28)">
          <path id="Path_367" data-name="Path 367" d="M0,0-5.693,9.32h3.582L3.583,0Z" fill="#fff"/>
        </g>
        <g id="Group_458" data-name="Group 458" transform="translate(28.974 -28.96)">
          <path id="Path_368" data-name="Path 368" d="M0,0H5.495l3.8-9.32H3.8Z" fill="#fff"/>
        </g>
        <g id="Group_459" data-name="Group 459" transform="translate(14.487 -28.96)">
          <path id="Path_369" data-name="Path 369" d="M0,0H7.407l1.9-9.32H1.9Z" fill="#fff"/>
        </g>
        <path id="Path_370" data-name="Path 370" d="M0-28.959H9.32v-9.32H0Z" fill="#fff"/>
        <g id="Group_460" data-name="Group 460" transform="translate(46.296 -23.8)">
          <path id="Path_371" data-name="Path 371" d="M0,0-2.847,9.32H3.6L6.451,0Z" fill="#fff"/>
        </g>
        <g id="Group_461" data-name="Group 461" transform="translate(28.966 -14.48)">
          <path id="Path_372" data-name="Path 372" d="M0,0H7.407l1.9-9.32H1.9Z" fill="#fff"/>
        </g>
        <g id="Group_462" data-name="Group 462" transform="translate(14.483 -14.48)">
          <path id="Path_373" data-name="Path 373" d="M0,0H8.364l.948-9.32H.949Z" fill="#fff"/>
        </g>
        <path id="Path_374" data-name="Path 374" d="M0-14.48H9.32V-23.8H0Z" fill="#fff"/>
      </g>
    </g>
  </g>
</svg>
